 <svg version="1.1"  id="svgDC" xmlns="http://www.w3.org/2000/svg" xmlns:xlink="http://www.w3.org/1999/xlink"  width="5541" height="494"  viewBox="0 0 5541 494"  onload="init()" >
 <defs>
  <style type="text/css"><![CDATA[

line{
	stroke:#000;
	stroke-width:0.5mm;
	stroke-linejoin:miter;
	stroke-linecap:square;
}

rect{
	stroke:#000;
	stroke-width:0.5mm;
	stroke-linejoin:miter;
	stroke-linecap:square;
}

ellipse{
	stroke: #000;
    fill: #fff;
	stroke-width:0.25mm;
}

text{
	font-family:"DejaVu Sans",sans-serif;
	font-size:12px;
}

.smallText{
	font-family:"DejaVu Sans",sans-serif;
	font-size:9px;
	fill:#444;
}

.layer text{
	fill:#930;
}

.layer line{
	stroke:#000;
}

.birthOrder,.unknownTwins{
	font-size: 8px;
}

.header{
	font-size:18px;
	font-weight:bold;
}

.keyBox{
	fill:#e5e5e5;
	stroke:#000;
	stroke-width:0.5mm;
	stroke-linejoin:miter;
	stroke-linecap:square;
}

.mating:hover{
	stroke-width:1mm;
	stroke:#d56300;
}

.selectedIndividual{
	stroke-width:1mm;
	stroke-linecap:square;
	stroke-linejoin:miter;
	stroke:#d00;
    fill:none;
}

.selectedIndividual:hover{
	stroke:#d00;
	fill:#ffbbbb;
	fill-opacity:0.70;
}

.solid{
	stroke-width:0.5mm;
	stroke-linecap:square;
	stroke-linejoin:miter;
	stroke:#000;
	fill:none;
}

.dashed{
	stroke-width:0.5mm;
	stroke-linecap:square;
	stroke-linejoin:miter;
	stroke:#98afc7;
	stroke-dasharray:2mm,1mm;
	stroke-dashoffset:1.0mm;
	fill:none;
}

.solid:hover{
	fill:#ffb787;
	fill-opacity:0.70;
	stroke:#d56300;
	stroke-width:1mm;
}

.dashed:hover{
	fill:#ffb787;
	fill-opacity:0.70;
	stroke:#d56300;
	stroke-width:1mm;
}

.filled{
	stroke-width:0.5mm;
	stroke-linecap:square;
	stroke-linejoin:miter;
	stroke:#000;
	fill:#000;
}

.specialIcons{
	stroke-width:0.25mm;
	stroke-linecap:round;
	stroke-linejoin:miter;
	stroke:#000;
	fill:#fff;
}

.specialLines{
	stroke-linecap:square;
	stroke-linejoin:miter;
	stroke:#000;
	stroke-width:0.5mm;
	fill:none;
}

.thinLine{
	fill:none;
	stroke: #000;
	stroke-width:0.25mm;
}

.curvedConnector{
	stroke-linecap:square;
	stroke-linejoin:miter;
	stroke:#98afc7;
	stroke-width:0.5mm;
	stroke-dasharray:2mm,1mm;
	stroke-dashoffset:1.0mm;
	fill:none;
}

.curvedConnector:hover{
	stroke:#d56300;
}

.whiteInkLetter_1{
	font-size: 12px;
	fill: #fff;
}

.whiteInkLetter_2{
	font-size: 10px;
	fill: #fff;
}

.whiteInkLetter_3{
	font-size: 8px;
	fill: #fff;
}

.whiteInkLetter{
	font-size: 8px;
	fill: #fff;
}

.blackInkLetter_1{
	font-size: 12px;
}

.blackInkLetter_2{
	font-size: 10px;
}

.blackInkLetter_3{
	font-size: 8px;
}

.blackInkLetter{
	font-size: 8px;
	fill: #000;
}

.blackInk{
	fill: #000;
}

.whiteInk{
	fill: #fff;
}

.counter{
	font-size: 14px;
	fill: #000;
}

.counterFill{
	fill: #fff;
}

.sampleLevel{
	stroke:none;
	fill:#f99;
}

]]></style>
 <script type="text/javascript" xlink:href="javascript/madeline.js"></script>
 <marker id="endArrow" viewBox="0 0 10 10" refX="1" refY="5" markerUnits="strokeWidth" orient="auto" markerWidth="5" markerHeight="4">  <polyline points="0,0 10,5 0,10 1,5" fill="#000" /> </marker>
 </defs>
 <g class="pedigree" transform="translate(-41.58)">

 <g id="bottomLayer" class="layer" >

 </g>
 <g id="layer0" class="layer" >
 </g>

  <g class="drawing">
  <text x="512" y="30" text-anchor="middle"  class="header" >1</text>
  <rect x="1712.34" y="38.66" width="22.68" height="22.68" id="1.0" class="solid">
	<title>1.0</title>
</rect>
  <line x1="1708.56" y1="65.12" x2="1738.8" y2="34.88" />
  <text x="1723.68" y="92.5845" text-anchor="middle" >1.0</text>
  <line x1="1735.02" y1="50" x2="1803.06" y2="50" />
<circle cx="1814.4" cy="50" r="11.34" id="2.0" class="solid">
	<title>2.0</title>
</circle>
  <line x1="1799.28" y1="65.12" x2="1829.52" y2="34.88" />
  <text x="1814.4" y="92.5845" text-anchor="middle" >2.0</text>
  <line class="mating" id="2.0:1.0" x1="1769.04" y1="50" x2="1769.04" y2="123.907" />
  <line class="solid" x1="453.6" y1="123.907" x2="453.6" y2="152.257" />
  <rect x="442.26" y="152.257" width="22.68" height="22.68" id="10.0" class="solid">
	<title>10.0</title>
</rect>
  <text x="453.6" y="206.181" text-anchor="middle" >10.0</text>
  <line class="solid" x1="544.32" y1="123.907" x2="544.32" y2="152.257" />
  <rect x="532.98" y="152.257" width="22.68" height="22.68" id="4.0" class="solid">
	<title>4.0</title>
</rect>
  <line x1="529.2" y1="178.717" x2="559.44" y2="148.477" />
  <text x="544.32" y="206.181" text-anchor="middle" >4.0</text>
  <line class="solid" x1="907.2" y1="123.907" x2="907.2" y2="152.257" />
<circle cx="907.2" cy="163.597" r="11.34" id="5.0" class="solid">
	<title>5.0</title>
</circle>
  <line x1="892.08" y1="178.717" x2="922.32" y2="148.477" />
  <text x="907.2" y="206.181" text-anchor="middle" >5.0</text>
  <line x1="918.54" y1="163.597" x2="986.58" y2="163.597" />
  <rect x="986.58" y="152.257" width="22.68" height="22.68" id="45.0" class="solid">
	<title>45.0</title>
</rect>
  <text x="997.92" y="206.181" text-anchor="middle" >45.0</text>
  <line class="mating" id="5.0:45.0" x1="952.56" y1="163.597" x2="952.56" y2="237.504" />
  <line class="solid" x1="907.2" y1="237.504" x2="907.2" y2="265.854" />
<circle cx="907.2" cy="277.194" r="11.34" id="28.0" class="solid">
	<title>28.0</title>
</circle>
  <text x="907.2" y="319.778" text-anchor="middle" >28.0</text>
  <line class="solid" x1="997.92" y1="237.504" x2="997.92" y2="265.854" />
  <rect x="986.58" y="265.854" width="22.68" height="22.68" id="56.0" class="solid">
	<title>56.0</title>
</rect>
  <text x="997.92" y="319.778" text-anchor="middle" >56.0</text>
  <line x1="907.2" y1="237.504" x2="997.92" y2="237.504" />
  <rect x="669.06" y="152.257" width="22.68" height="22.68" id="46.0" class="solid">
	<title>46.0</title>
</rect>
  <line x1="665.28" y1="178.717" x2="695.52" y2="148.477" />
  <text x="680.4" y="206.181" text-anchor="middle" >46.0</text>
  <line x1="691.74" y1="163.597" x2="759.78" y2="163.597" />
  <line class="mating" id="5.0:46.0" x1="725.76" y1="163.597" x2="725.76" y2="237.504" />
  <line class="solid" x1="635.04" y1="237.504" x2="635.04" y2="265.854" />
<circle cx="635.04" cy="277.194" r="11.34" id="30.0" class="solid">
	<title>30.0</title>
</circle>
  <text x="635.04" y="319.778" text-anchor="middle" >30.0</text>
  <line class="solid" x1="725.76" y1="237.504" x2="725.76" y2="265.854" />
<circle cx="725.76" cy="277.194" r="11.34" id="31.0" class="solid">
	<title>31.0</title>
</circle>
  <text x="725.76" y="319.778" text-anchor="middle" >31.0</text>
  <line class="solid" x1="816.48" y1="237.504" x2="816.48" y2="265.854" />
<circle cx="816.48" cy="277.194" r="11.34" id="57.0" class="solid">
	<title>57.0</title>
</circle>
  <text x="816.48" y="319.778" text-anchor="middle" >57.0</text>
  <line x1="635.04" y1="237.504" x2="816.48" y2="237.504" />
  <line x1="895.86" y1="163.597" x2="759.78" y2="163.597" />
  <line class="solid" x1="1088.64" y1="123.907" x2="1088.64" y2="152.257" />
  <rect x="1077.3" y="152.257" width="22.68" height="22.68" id="52.0" class="solid">
	<title>52.0</title>
</rect>
  <line x1="1073.52" y1="178.717" x2="1103.76" y2="148.477" />
  <text x="1088.64" y="206.181" text-anchor="middle" >52.0</text>
  <line class="solid" x1="1179.36" y1="123.907" x2="1179.36" y2="152.257" />
  <rect x="1168.02" y="152.257" width="22.68" height="22.68" id="53.0" class="solid">
	<title>53.0</title>
</rect>
  <line x1="1164.24" y1="178.717" x2="1194.48" y2="148.477" />
  <text x="1179.36" y="206.181" text-anchor="middle" >53.0</text>
  <line class="solid" x1="1270.08" y1="123.907" x2="1270.08" y2="152.257" />
  <rect x="1258.74" y="152.257" width="22.68" height="22.68" id="54.0" class="solid">
	<title>54.0</title>
</rect>
  <line x1="1254.96" y1="178.717" x2="1285.2" y2="148.477" />
  <text x="1270.08" y="206.181" text-anchor="middle" >54.0</text>
  <line class="solid" x1="1360.8" y1="123.907" x2="1360.8" y2="152.257" />
  <rect x="1349.46" y="152.257" width="22.68" height="22.68" id="55.0" class="solid">
	<title>55.0</title>
</rect>
  <line x1="1345.68" y1="178.717" x2="1375.92" y2="148.477" />
  <text x="1360.8" y="206.181" text-anchor="middle" >55.0</text>
  <line class="solid" x1="1814.4" y1="123.907" x2="1814.4" y2="152.257" />
<circle cx="1814.4" cy="163.597" r="11.34" id="6.0" class="solid">
	<title>6.0</title>
</circle>
  <text x="1814.4" y="206.181" text-anchor="middle" >6.0</text>
  <line x1="1825.74" y1="163.597" x2="1893.78" y2="163.597" />
  <rect x="1893.78" y="152.257" width="22.68" height="22.68" id="47.0" class="solid">
	<title>47.0</title>
</rect>
  <line x1="1890" y1="178.717" x2="1920.24" y2="148.477" />
  <text x="1905.12" y="206.181" text-anchor="middle" >47.0</text>
  <line class="mating" id="6.0:47.0" x1="1859.76" y1="163.597" x2="1859.76" y2="237.504" />
  <line class="solid" x1="1632.96" y1="237.504" x2="1632.96" y2="265.854" />
  <rect x="1621.62" y="265.854" width="22.68" height="22.68" id="27.0" class="solid">
	<title>27.0</title>
</rect>
  <text x="1632.96" y="319.778" text-anchor="middle" >27.0</text>
  <line class="solid" x1="1723.68" y1="237.504" x2="1723.68" y2="265.854" />
<circle cx="1723.68" cy="277.194" r="11.34" id="58.0" class="solid">
	<title>58.0</title>
</circle>
  <line x1="1708.56" y1="292.314" x2="1738.8" y2="262.074" />
  <text x="1723.68" y="319.778" text-anchor="middle" >58.0</text>
  <line class="solid" x1="1814.4" y1="237.504" x2="1814.4" y2="265.854" />
<circle cx="1814.4" cy="277.194" r="11.34" id="59.0" class="solid">
	<title>59.0</title>
</circle>
  <text x="1814.4" y="319.778" text-anchor="middle" >59.0</text>
  <line class="solid" x1="1905.12" y1="237.504" x2="1905.12" y2="265.854" />
  <rect x="1893.78" y="265.854" width="22.68" height="22.68" id="60.0" class="solid">
	<title>60.0</title>
</rect>
  <text x="1905.12" y="319.778" text-anchor="middle" >60.0</text>
  <line class="solid" x1="1995.84" y1="237.504" x2="1995.84" y2="265.854" />
  <rect x="1984.5" y="265.854" width="22.68" height="22.68" id="61.0" class="solid">
	<title>61.0</title>
</rect>
  <text x="1995.84" y="319.778" text-anchor="middle" >61.0</text>
  <line class="solid" x1="2086.56" y1="237.504" x2="2086.56" y2="265.854" />
  <rect x="2075.22" y="265.854" width="22.68" height="22.68" id="62.0" class="solid">
	<title>62.0</title>
</rect>
  <text x="2086.56" y="319.778" text-anchor="middle" >62.0</text>
  <line x1="1632.96" y1="237.504" x2="2086.56" y2="237.504" />
  <rect x="1440.18" y="152.257" width="22.68" height="22.68" id="503.0" class="solid">
	<title>503.0</title>
</rect>
  <text x="1451.52" y="206.181" text-anchor="middle" >503.0</text>
  <line x1="1462.86" y1="163.597" x2="1530.9" y2="163.597" />
  <line class="mating" id="6.0:503.0" x1="1496.88" y1="163.597" x2="1496.88" y2="237.504" />
  <line class="solid" x1="1496.88" y1="237.504" x2="1496.88" y2="265.854" />
<circle cx="1496.88" cy="277.194" r="11.34" id="32.0" class="solid">
	<title>32.0</title>
</circle>
  <text x="1496.88" y="319.778" text-anchor="middle" >32.0</text>
  <line x1="2188.62" y1="163.597" x2="2256.66" y2="163.597" />
  <rect x="2256.66" y="152.257" width="22.68" height="22.68" id="504.0" class="solid">
	<title>504.0</title>
</rect>
  <text x="2268" y="206.181" text-anchor="middle" >504.0</text>
  <line class="mating" id="6.0:504.0" x1="2222.64" y1="163.597" x2="2222.64" y2="237.504" />
  <line class="solid" x1="2177.28" y1="237.504" x2="2177.28" y2="265.854" />
<circle cx="2177.28" cy="277.194" r="11.34" id="38.0" class="solid">
	<title>38.0</title>
</circle>
  <text x="2177.28" y="319.778" text-anchor="middle" >38.0</text>
  <line x1="2188.62" y1="277.194" x2="2256.66" y2="277.194" />
  <rect x="2256.66" y="265.854" width="22.68" height="22.68" id="72.0" class="solid">
	<title>72.0</title>
</rect>
  <line x1="2252.88" y1="292.314" x2="2283.12" y2="262.074" />
  <text x="2268" y="319.778" text-anchor="middle" >72.0</text>
  <line class="mating" id="38.0:72.0" x1="2222.64" y1="277.194" x2="2222.64" y2="351.101" />
  <line class="solid" x1="2177.28" y1="351.101" x2="2177.28" y2="379.451" />
  <rect x="2165.94" y="379.451" width="22.68" height="22.68" id="71.0" class="solid">
	<title>71.0</title>
</rect>
  <text x="2177.28" y="433.375" text-anchor="middle" >71.0</text>
  <line class="solid" x1="2268" y1="351.101" x2="2268" y2="379.451" />
  <rect x="2256.66" y="379.451" width="22.68" height="22.68" id="73.0" class="solid">
	<title>73.0</title>
</rect>
  <text x="2268" y="433.375" text-anchor="middle" >73.0</text>
  <line x1="2177.28" y1="351.101" x2="2268" y2="351.101" />
  <line x1="2177.28" y1="237.504" x2="2222.64" y2="237.504" />
  <line x1="1803.06" y1="163.597" x2="1530.9" y2="163.597" />
  <line x1="1825.74" y1="159.817" x2="1859.76" y2="159.817" />
  <line x1="1859.76" y1="159.817" x2="1859.76" y2="148.477" />
  <line x1="2188.62" y1="148.477" x2="2188.62" y2="163.597" />
  <line x1="1859.76" y1="148.477" x2="2188.62" y2="148.477" />
  <line class="solid" x1="2404.08" y1="123.907" x2="2404.08" y2="152.257" />
<circle cx="2404.08" cy="163.597" r="11.34" id="7.0" class="solid">
	<title>7.0</title>
</circle>
  <text x="2404.08" y="206.181" text-anchor="middle" >7.0</text>
  <line x1="2415.42" y1="163.597" x2="2483.46" y2="163.597" />
  <rect x="2483.46" y="152.257" width="22.68" height="22.68" id="65.0" class="solid">
	<title>65.0</title>
</rect>
  <line x1="2479.68" y1="178.717" x2="2509.92" y2="148.477" />
  <text x="2494.8" y="206.181" text-anchor="middle" >65.0</text>
  <line class="mating" id="7.0:65.0" x1="2449.44" y1="163.597" x2="2449.44" y2="237.504" />
  <line class="solid" x1="2358.72" y1="237.504" x2="2358.72" y2="265.854" />
  <rect x="2347.38" y="265.854" width="22.68" height="22.68" id="63.0" class="solid">
	<title>63.0</title>
</rect>
  <text x="2358.72" y="319.778" text-anchor="middle" >63.0</text>
  <line x1="2370.06" y1="277.194" x2="2438.1" y2="277.194" />
<circle cx="2449.44" cy="277.194" r="11.34" id="78.0" class="solid">
	<title>78.0</title>
</circle>
  <line x1="2434.32" y1="292.314" x2="2464.56" y2="262.074" />
  <text x="2449.44" y="319.778" text-anchor="middle" >78.0</text>
  <line class="mating" id="78.0:63.0" x1="2404.08" y1="277.194" x2="2404.08" y2="351.101" />
  <line class="solid" x1="2358.72" y1="351.101" x2="2358.72" y2="379.451" />
<circle cx="2358.72" cy="390.791" r="11.34" id="76.0" class="solid">
	<title>76.0</title>
</circle>
  <line x1="2343.6" y1="405.911" x2="2373.84" y2="375.671" />
  <text x="2358.72" y="433.375" text-anchor="middle" >76.0</text>
  <line class="solid" x1="2449.44" y1="351.101" x2="2449.44" y2="379.451" />
  <rect x="2438.1" y="379.451" width="22.68" height="22.68" id="85.0" class="solid">
	<title>85.0</title>
</rect>
  <text x="2449.44" y="433.375" text-anchor="middle" >85.0</text>
  <line x1="2358.72" y1="351.101" x2="2449.44" y2="351.101" />
  <line class="solid" x1="2540.16" y1="237.504" x2="2540.16" y2="265.854" />
  <rect x="2528.82" y="265.854" width="22.68" height="22.68" id="64.0" class="solid">
	<title>64.0</title>
</rect>
  <line x1="2525.04" y1="292.314" x2="2555.28" y2="262.074" />
  <text x="2540.16" y="319.778" text-anchor="middle" >64.0</text>
  <line x1="2358.72" y1="237.504" x2="2540.16" y2="237.504" />
  <line class="solid" x1="2630.88" y1="123.907" x2="2630.88" y2="152.257" />
  <rect x="2619.54" y="152.257" width="22.68" height="22.68" id="8.0" class="solid">
	<title>8.0</title>
</rect>
  <line x1="2615.76" y1="178.717" x2="2646" y2="148.477" />
  <text x="2630.88" y="206.181" text-anchor="middle" >8.0</text>
  <line class="solid" x1="2721.6" y1="123.907" x2="2721.6" y2="152.257" />
  <rect x="2710.26" y="152.257" width="22.68" height="22.68" id="9.0" class="solid">
	<title>9.0</title>
</rect>
  <line x1="2706.48" y1="178.717" x2="2736.72" y2="148.477" />
  <text x="2721.6" y="206.181" text-anchor="middle" >9.0</text>
  <line class="solid" x1="3084.48" y1="123.907" x2="3084.48" y2="152.257" />
<circle cx="3084.48" cy="163.597" r="11.34" id="99.0" class="solid">
	<title>99.0</title>
</circle>
  <line x1="3069.36" y1="178.717" x2="3099.6" y2="148.477" />
  <text x="3084.48" y="206.181" text-anchor="middle" >99.0</text>
  <line x1="3095.82" y1="163.597" x2="3163.86" y2="163.597" />
  <rect x="3163.86" y="152.257" width="22.68" height="22.68" id="44.0" class="solid">
	<title>44.0</title>
</rect>
  <line x1="3160.08" y1="178.717" x2="3190.32" y2="148.477" />
  <text x="3175.2" y="206.181" text-anchor="middle" >44.0</text>
  <line class="mating" id="99.0:44.0" x1="3129.84" y1="163.597" x2="3129.84" y2="237.504" />
  <line class="solid" x1="2812.32" y1="237.504" x2="2812.32" y2="265.854" />
  <rect x="2800.98" y="265.854" width="22.68" height="22.68" id="17.0" class="solid">
	<title>17.0</title>
</rect>
  <text x="2812.32" y="319.778" text-anchor="middle" >17.0</text>
  <line class="solid" x1="2903.04" y1="237.504" x2="2903.04" y2="256.459" />
<path d="M 2903.04 256.459 l -16.0372 16.0372 16.0372 16.0372 16.0372 -16.0372 z" id="18.0" class="solid">
	<title>18.0</title>
</path>
  <line x1="2887.92" y1="287.617" x2="2918.16" y2="257.377" />
  <text x="2903.04" y="319.778" text-anchor="middle" >18.0</text>
  <line class="solid" x1="2993.76" y1="237.504" x2="2993.76" y2="265.854" />
  <rect x="2982.42" y="265.854" width="22.68" height="22.68" id="19.0" class="solid">
	<title>19.0</title>
</rect>
  <text x="2993.76" y="319.778" text-anchor="middle" >19.0</text>
  <line class="solid" x1="3084.48" y1="237.504" x2="3084.48" y2="265.854" />
<circle cx="3084.48" cy="277.194" r="11.34" id="20.0" class="solid">
	<title>20.0</title>
</circle>
  <text x="3084.48" y="319.778" text-anchor="middle" >20.0</text>
  <line class="solid" x1="3175.2" y1="237.504" x2="3175.2" y2="265.854" />
<circle cx="3175.2" cy="277.194" r="11.34" id="21.0" class="solid">
	<title>21.0</title>
</circle>
  <text x="3175.2" y="319.778" text-anchor="middle" >21.0</text>
  <line class="solid" x1="3265.92" y1="237.504" x2="3265.92" y2="265.854" />
<circle cx="3265.92" cy="277.194" r="11.34" id="22.0" class="solid">
	<title>22.0</title>
</circle>
  <line x1="3250.8" y1="292.314" x2="3281.04" y2="262.074" />
  <text x="3265.92" y="319.778" text-anchor="middle" >22.0</text>
  <line class="solid" x1="3356.64" y1="237.504" x2="3356.64" y2="265.854" />
<circle cx="3356.64" cy="277.194" r="11.34" id="23.0" class="solid">
	<title>23.0</title>
</circle>
  <text x="3356.64" y="319.778" text-anchor="middle" >23.0</text>
  <line class="solid" x1="3447.36" y1="237.504" x2="3447.36" y2="265.854" />
<circle cx="3447.36" cy="277.194" r="11.34" id="24.0" class="solid">
	<title>24.0</title>
</circle>
  <text x="3447.36" y="319.778" text-anchor="middle" >24.0</text>
  <line x1="2812.32" y1="237.504" x2="3447.36" y2="237.504" />
  <line x1="453.6" y1="123.907" x2="3084.48" y2="123.907" />
<circle cx="272.16" cy="50" r="11.34" id="40.0" class="solid">
	<title>40.0</title>
</circle>
  <text x="272.16" y="92.5845" text-anchor="middle" >40.0</text>
  <line x1="283.5" y1="50" x2="351.54" y2="50" />
  <line class="mating" id="40.0:1.0" x1="317.52" y1="50" x2="317.52" y2="123.907" />
  <line class="solid" x1="317.52" y1="123.907" x2="317.52" y2="152.257" />
  <rect x="306.18" y="152.257" width="22.68" height="22.68" id="14.0" class="solid">
	<title>14.0</title>
</rect>
  <line x1="302.4" y1="178.717" x2="332.64" y2="148.477" />
  <text x="317.52" y="206.181" text-anchor="middle" >14.0</text>
  <line x1="3549.42" y1="50" x2="3617.46" y2="50" />
<circle cx="3628.8" cy="50" r="11.34" id="50.0" class="solid">
	<title>50.0</title>
</circle>
  <line x1="3613.68" y1="65.12" x2="3643.92" y2="34.88" />
  <text x="3628.8" y="92.5845" text-anchor="middle" >50.0</text>
  <line class="mating" id="50.0:1.0" x1="3583.44" y1="50" x2="3583.44" y2="123.907" />
  <line class="solid" x1="3538.08" y1="123.907" x2="3538.08" y2="152.257" />
<circle cx="3538.08" cy="163.597" r="11.34" id="13.0" class="solid">
	<title>13.0</title>
</circle>
  <line x1="3522.96" y1="178.717" x2="3553.2" y2="148.477" />
  <text x="3538.08" y="206.181" text-anchor="middle" >13.0</text>
  <line class="solid" x1="3628.8" y1="123.907" x2="3628.8" y2="152.257" />
  <rect x="3617.46" y="152.257" width="22.68" height="22.68" id="3.0" class="solid">
	<title>3.0</title>
</rect>
  <line x1="3613.68" y1="178.717" x2="3643.92" y2="148.477" />
  <text x="3628.8" y="206.181" text-anchor="middle" >3.0</text>
  <line x1="3538.08" y1="123.907" x2="3628.8" y2="123.907" />
<circle cx="90.72" cy="50" r="11.34" id="51.0" class="solid">
	<title>51.0</title>
</circle>
  <line x1="75.6" y1="65.12" x2="105.84" y2="34.88" />
  <text x="90.72" y="92.5845" text-anchor="middle" >51.0</text>
  <line x1="102.06" y1="50" x2="170.1" y2="50" />
  <line class="mating" id="51.0:1.0" x1="136.08" y1="50" x2="136.08" y2="123.907" />
  <line class="solid" x1="90.72" y1="123.907" x2="90.72" y2="152.257" />
  <rect x="79.38" y="152.257" width="22.68" height="22.68" id="15.0" class="solid">
	<title>15.0</title>
</rect>
  <text x="90.72" y="206.181" text-anchor="middle" >15.0</text>
  <line class="solid" x1="181.44" y1="123.907" x2="181.44" y2="152.257" />
  <rect x="170.1" y="152.257" width="22.68" height="22.68" id="16.0" class="solid">
	<title>16.0</title>
</rect>
  <text x="181.44" y="206.181" text-anchor="middle" >16.0</text>
  <line x1="90.72" y1="123.907" x2="181.44" y2="123.907" />
  <line x1="1712.34" y1="50" x2="351.54" y2="50" />
  <line x1="1712.34" y1="46.22" x2="1678.32" y2="46.22" />
  <line x1="1678.32" y1="46.22" x2="1678.32" y2="34.88" />
  <line x1="1735.02" y1="46.22" x2="1769.04" y2="46.22" />
  <line x1="1769.04" y1="46.22" x2="1769.04" y2="34.88" />
  <line x1="3549.42" y1="34.88" x2="3549.42" y2="50" />
  <line x1="170.1" y1="34.88" x2="170.1" y2="50" />
  <line x1="1769.04" y1="34.88" x2="3549.42" y2="34.88" />
  <line x1="1678.32" y1="34.88" x2="170.1" y2="34.88" />
  <rect x="4887.54" y="38.66" width="22.68" height="22.68" id="501.0" class="solid">
	<title>501.0</title>
</rect>
  <text x="4898.88" y="92.5845" text-anchor="middle" >501.0</text>
  <line x1="4910.22" y1="50" x2="4978.26" y2="50" />
<circle cx="4989.6" cy="50" r="11.34" id="43.0" class="solid">
	<title>43.0</title>
</circle>
  <line x1="4974.48" y1="65.12" x2="5004.72" y2="34.88" />
  <text x="4989.6" y="92.5845" text-anchor="middle" >43.0</text>
  <line class="mating" id="43.0:501.0" x1="4944.24" y1="50" x2="4944.24" y2="123.907" />
  <line class="solid" x1="4898.88" y1="123.907" x2="4898.88" y2="152.257" />
  <rect x="4887.54" y="152.257" width="22.68" height="22.68" id="12.0" class="solid">
	<title>12.0</title>
</rect>
  <line x1="4883.76" y1="178.717" x2="4914" y2="148.477" />
  <text x="4898.88" y="206.181" text-anchor="middle" >12.0</text>
  <line x1="4910.22" y1="163.597" x2="4978.26" y2="163.597" />
<circle cx="4989.6" cy="163.597" r="11.34" id="39.0" class="solid">
	<title>39.0</title>
</circle>
  <line x1="4974.48" y1="178.717" x2="5004.72" y2="148.477" />
  <text x="4989.6" y="206.181" text-anchor="middle" >39.0</text>
  <line class="mating" id="39.0:12.0" x1="4944.24" y1="163.597" x2="4944.24" y2="237.504" />
  <line class="solid" x1="4354.56" y1="237.504" x2="4354.56" y2="265.854" />
<circle cx="4354.56" cy="277.194" r="11.34" id="29.0" class="solid">
	<title>29.0</title>
</circle>
  <text x="4354.56" y="319.778" text-anchor="middle" >29.0</text>
  <line x1="4365.9" y1="277.194" x2="4433.94" y2="277.194" />
  <rect x="4433.94" y="265.854" width="22.68" height="22.68" id="75.0" class="solid">
	<title>75.0</title>
</rect>
  <text x="4445.28" y="319.778" text-anchor="middle" >75.0</text>
  <line class="mating" id="29.0:75.0" x1="4399.92" y1="277.194" x2="4399.92" y2="351.101" />
  <line class="solid" x1="4399.92" y1="351.101" x2="4399.92" y2="379.451" />
  <rect x="4388.58" y="379.451" width="22.68" height="22.68" id="74.0" class="solid">
	<title>74.0</title>
</rect>
  <text x="4399.92" y="433.375" text-anchor="middle" >74.0</text>
  <line class="solid" x1="4717.44" y1="237.504" x2="4717.44" y2="265.854" />
<circle cx="4717.44" cy="277.194" r="11.34" id="33.0" class="solid">
	<title>33.0</title>
</circle>
  <text x="4717.44" y="319.778" text-anchor="middle" >33.0</text>
  <line x1="4728.78" y1="277.194" x2="4796.82" y2="277.194" />
  <rect x="4796.82" y="265.854" width="22.68" height="22.68" id="84.0" class="solid">
	<title>84.0</title>
</rect>
  <text x="4808.16" y="319.778" text-anchor="middle" >84.0</text>
  <line class="mating" id="33.0:84.0" x1="4762.8" y1="277.194" x2="4762.8" y2="351.101" />
  <line class="solid" x1="4536" y1="351.101" x2="4536" y2="379.451" />
  <rect x="4524.66" y="379.451" width="22.68" height="22.68" id="77.0" class="solid">
	<title>77.0</title>
</rect>
  <text x="4536" y="433.375" text-anchor="middle" >77.0</text>
  <line class="solid" x1="4626.72" y1="351.101" x2="4626.72" y2="379.451" />
<circle cx="4626.72" cy="390.791" r="11.34" id="79.0" class="solid">
	<title>79.0</title>
</circle>
  <text x="4626.72" y="433.375" text-anchor="middle" >79.0</text>
  <line class="solid" x1="4717.44" y1="351.101" x2="4717.44" y2="379.451" />
<circle cx="4717.44" cy="390.791" r="11.34" id="80.0" class="solid">
	<title>80.0</title>
</circle>
  <text x="4717.44" y="433.375" text-anchor="middle" >80.0</text>
  <line class="solid" x1="4808.16" y1="351.101" x2="4808.16" y2="379.451" />
<circle cx="4808.16" cy="390.791" r="11.34" id="81.0" class="solid">
	<title>81.0</title>
</circle>
  <text x="4808.16" y="433.375" text-anchor="middle" >81.0</text>
  <line class="solid" x1="4898.88" y1="351.101" x2="4898.88" y2="379.451" />
<circle cx="4898.88" cy="390.791" r="11.34" id="82.0" class="solid">
	<title>82.0</title>
</circle>
  <text x="4898.88" y="433.375" text-anchor="middle" >82.0</text>
  <line class="solid" x1="4989.6" y1="351.101" x2="4989.6" y2="379.451" />
<circle cx="4989.6" cy="390.791" r="11.34" id="83.0" class="solid">
	<title>83.0</title>
</circle>
  <text x="4989.6" y="433.375" text-anchor="middle" >83.0</text>
  <line x1="4536" y1="351.101" x2="4989.6" y2="351.101" />
  <line class="solid" x1="5080.32" y1="237.504" x2="5080.32" y2="265.854" />
<circle cx="5080.32" cy="277.194" r="11.34" id="34.0" class="solid">
	<title>34.0</title>
</circle>
  <text x="5080.32" y="319.778" text-anchor="middle" >34.0</text>
  <line class="solid" x1="5171.04" y1="237.504" x2="5171.04" y2="265.854" />
<circle cx="5171.04" cy="277.194" r="11.34" id="35.0" class="solid">
	<title>35.0</title>
</circle>
  <text x="5171.04" y="319.778" text-anchor="middle" >35.0</text>
  <line class="solid" x1="5261.76" y1="237.504" x2="5261.76" y2="265.854" />
  <rect x="5250.42" y="265.854" width="22.68" height="22.68" id="36.0" class="solid">
	<title>36.0</title>
</rect>
  <text x="5261.76" y="319.778" text-anchor="middle" >36.0</text>
  <line class="solid" x1="5352.48" y1="237.504" x2="5352.48" y2="265.854" />
  <rect x="5341.14" y="265.854" width="22.68" height="22.68" id="48.0" class="solid">
	<title>48.0</title>
</rect>
  <text x="5352.48" y="319.778" text-anchor="middle" >48.0</text>
  <line class="solid" x1="5443.2" y1="237.504" x2="5443.2" y2="265.854" />
  <rect x="5431.86" y="265.854" width="22.68" height="22.68" id="49.0" class="solid">
	<title>49.0</title>
</rect>
  <text x="5443.2" y="319.778" text-anchor="middle" >49.0</text>
  <line class="solid" x1="5533.92" y1="237.504" x2="5533.92" y2="265.854" />
<circle cx="5533.92" cy="277.194" r="11.34" id="66.0" class="solid">
	<title>66.0</title>
</circle>
  <line x1="5518.8" y1="292.314" x2="5549.04" y2="262.074" />
  <text x="5533.92" y="319.778" text-anchor="middle" >66.0</text>
  <line x1="4354.56" y1="237.504" x2="5533.92" y2="237.504" />
<circle cx="4173.12" cy="163.597" r="11.34" id="68.0" class="solid">
	<title>68.0</title>
</circle>
  <line x1="4158" y1="178.717" x2="4188.24" y2="148.477" />
  <text x="4173.12" y="206.181" text-anchor="middle" >68.0</text>
  <line x1="4184.46" y1="163.597" x2="4252.5" y2="163.597" />
  <line class="mating" id="68.0:12.0" x1="4218.48" y1="163.597" x2="4218.48" y2="237.504" />
  <line class="solid" x1="4218.48" y1="237.504" x2="4218.48" y2="265.854" />
  <rect x="4207.14" y="265.854" width="22.68" height="22.68" id="67.0" class="solid">
	<title>67.0</title>
</rect>
  <text x="4218.48" y="319.778" text-anchor="middle" >67.0</text>
  <line x1="4887.54" y1="163.597" x2="4252.5" y2="163.597" />
  <line x1="4898.88" y1="123.907" x2="4944.24" y2="123.907" />
<circle cx="3946.32" cy="50" r="11.34" id="502.0" class="solid">
	<title>502.0</title>
</circle>
  <text x="3946.32" y="92.5845" text-anchor="middle" >502.0</text>
  <line x1="3957.66" y1="50" x2="4025.7" y2="50" />
  <line class="mating" id="502.0:501.0" x1="3991.68" y1="50" x2="3991.68" y2="123.907" />
  <line class="solid" x1="3946.32" y1="123.907" x2="3946.32" y2="152.257" />
  <rect x="3934.98" y="152.257" width="22.68" height="22.68" id="11.0" class="solid">
	<title>11.0</title>
</rect>
  <text x="3946.32" y="206.181" text-anchor="middle" >11.0</text>
  <line x1="3957.66" y1="163.597" x2="4025.7" y2="163.597" />
<circle cx="4037.04" cy="163.597" r="11.34" id="41.0" class="solid">
	<title>41.0</title>
</circle>
  <text x="4037.04" y="206.181" text-anchor="middle" >41.0</text>
  <line class="mating" id="41.0:11.0" x1="3991.68" y1="163.597" x2="3991.68" y2="237.504" />
  <line class="solid" x1="3900.96" y1="237.504" x2="3900.96" y2="265.854" />
  <rect x="3889.62" y="265.854" width="22.68" height="22.68" id="26.0" class="solid">
	<title>26.0</title>
</rect>
  <text x="3900.96" y="319.778" text-anchor="middle" >26.0</text>
  <line class="solid" x1="3991.68" y1="237.504" x2="3991.68" y2="265.854" />
<circle cx="3991.68" cy="277.194" r="11.34" id="37.0" class="solid">
	<title>37.0</title>
</circle>
  <text x="3991.68" y="319.778" text-anchor="middle" >37.0</text>
  <line class="solid" x1="4082.4" y1="237.504" x2="4082.4" y2="265.854" />
  <rect x="4071.06" y="265.854" width="22.68" height="22.68" id="69.0" class="solid">
	<title>69.0</title>
</rect>
  <text x="4082.4" y="319.778" text-anchor="middle" >69.0</text>
  <line x1="3900.96" y1="237.504" x2="4082.4" y2="237.504" />
<circle cx="3719.52" cy="163.597" r="11.34" id="42.0" class="solid">
	<title>42.0</title>
</circle>
  <text x="3719.52" y="206.181" text-anchor="middle" >42.0</text>
  <line x1="3730.86" y1="163.597" x2="3798.9" y2="163.597" />
  <line class="mating" id="42.0:11.0" x1="3764.88" y1="163.597" x2="3764.88" y2="237.504" />
  <line class="solid" x1="3719.52" y1="237.504" x2="3719.52" y2="265.854" />
<circle cx="3719.52" cy="277.194" r="11.34" id="25.0" class="solid">
	<title>25.0</title>
</circle>
  <text x="3719.52" y="319.778" text-anchor="middle" >25.0</text>
  <line class="solid" x1="3810.24" y1="237.504" x2="3810.24" y2="265.854" />
<circle cx="3810.24" cy="277.194" r="11.34" id="70.0" class="solid">
	<title>70.0</title>
</circle>
  <text x="3810.24" y="319.778" text-anchor="middle" >70.0</text>
  <line x1="3719.52" y1="237.504" x2="3810.24" y2="237.504" />
  <line x1="3934.98" y1="163.597" x2="3798.9" y2="163.597" />
  <line x1="3946.32" y1="123.907" x2="3991.68" y2="123.907" />
  <line x1="4887.54" y1="50" x2="4025.7" y2="50" />
  </g>

 </g>
 </svg>

